<?xml version="1.0" standalone="no"?><!DOCTYPE svg PUBLIC "-//W3C//DTD SVG 1.1//EN" "http://www.w3.org/Graphics/SVG/1.1/DTD/svg11.dtd"><svg t="1597319323771" class="icon" viewBox="0 0 1024 1024" version="1.1" xmlns="http://www.w3.org/2000/svg" p-id="5175" xmlns:xlink="http://www.w3.org/1999/xlink" width="200" height="200"><defs><style type="text/css"></style></defs><path d="M512 1024c-282.304 0-512-229.696-512-512s229.696-512 512-512 512 229.696 512 512-229.696 512-512 512zM512 64C264.96 64 64 264.96 64 512c0 246.976 200.96 448 448 448 246.976 0 448-201.024 448-448 0-247.04-201.024-448-448-448z" p-id="5176"></path><path d="M320 647.168a31.936 31.936 0 0 1-25.6-51.2c34.112-45.504 34.112-122.496 0-168a32 32 0 1 1 51.264-38.336c51.328 68.608 51.328 176.064 0 244.736a32.064 32.064 0 0 1-25.664 12.8zM480 750.336a32 32 0 0 1-25.6-51.2c77.312-103.168 77.312-271.104 0-374.272a32 32 0 1 1 51.264-38.336c93.12 124.352 93.12 326.72 0 451.008a32.256 32.256 0 0 1-25.664 12.8zM656 837.312a32.128 32.128 0 0 1-26.752-49.6c100.096-152 100.096-399.424 0-551.424a32 32 0 1 1 53.504-35.136c112.896 171.456 112.896 450.368 0 621.888a32.256 32.256 0 0 1-26.752 14.272z" p-id="5177"></path></svg>